<?xml version="1.0" encoding="UTF-8"?>
<!DOCTYPE svg PUBLIC "-//W3C//DTD SVG 1.1//EN" "http://www.w3.org/Graphics/SVG/1.1/DTD/svg11.dtd">
<!-- Creator: CorelDRAW 2019 -->
<svg xmlns="http://www.w3.org/2000/svg" xml:space="preserve" width="150px" height="150px" version="1.1" style="shape-rendering:geometricPrecision; text-rendering:geometricPrecision; image-rendering:optimizeQuality; fill-rule:evenodd; clip-rule:evenodd"
viewBox="0 0 21000 29700"
 xmlns:xlink="http://www.w3.org/1999/xlink"
 xmlns:xodm="http://www.corel.com/coreldraw/odm/2003">
 <defs>
  <style type="text/css">
   <![CDATA[
    .str0 {stroke:#2B2A29;stroke-width:20;stroke-miterlimit:22.9256}
    .fil0 {fill:none}
   ]]>
  </style>
 </defs>
 <g id="Слой_x0020_1">
  <metadata id="CorelCorpID_0Corel-Layer"/>
  <path class="fil0 str0" d="M6812.64 3284.96c-493.89,-163.16 -1181.8,445.38 -1486.07,1278.82 -304.28,833.43 -224.9,1891.77 141.11,2076.98 366,185.2 1018.64,-502.71 1605.14,-855.49 586.49,-352.78 1106.83,-370.41 1799.16,-52.91 692.33,317.5 1556.63,970.13 2050.52,851.07 493.89,-119.06 617.37,-1009.83 392.47,-1856.49 -224.9,-846.67 -798.16,-1649.24 -1424.34,-1543.4 -626.19,105.83 -1305.28,1120.06 -1794.76,1159.75 -489.48,39.69 -789.34,-895.17 -1283.23,-1058.33z"/>
  <path class="fil0 str0" d="M14507.6 3067.39c-436.56,-141.97 -1177.4,-229.86 -1631.6,-43.95 -454.2,185.91 -621.77,645.62 -445.38,963.36 176.39,317.73 696.74,493.49 1098.02,696.31 401.29,202.81 683.51,432.66 463.02,615.19 -220.48,182.53 -943.68,317.74 -1005.42,571.25 -61.73,253.51 538,625.33 1124.49,719.98 586.49,94.64 1159.76,-87.89 1371.42,-446.18 211.67,-358.31 61.74,-892.37 -220.48,-1223.63 -282.22,-331.26 -696.74,-459.71 -1058.34,-638.85 -361.59,-179.16 -670.28,-409.01 -493.89,-530.69 176.39,-121.69 837.85,-135.21 1102.43,-239.99 264.59,-104.79 132.29,-300.84 -304.27,-442.8z"/>
 </g>
</svg>
